<svg xmlns="http://www.w3.org/2000/svg" viewBox="0 0 24 24" fill="none">
  <path d="M8.5 2A3.5 3.5 0 0 0 5 5.5c0 1.302.712 2.439 1.768 3.042A3.48 3.48 0 0 0 5 11.5c0 1.302.712 2.439 1.768 3.042A3.5 3.5 0 1 0 12 17.5v-3.043A3.5 3.5 0 1 0 15.5 8.5a3.49 3.49 0 0 0-1.768-.458A3.48 3.48 0 0 0 15.5 5.5 3.5 3.5 0 0 0 12 2H8.5z" fill="#A259FF"/>
  <path d="M8.5 2A3.5 3.5 0 0 0 5 5.5 3.5 3.5 0 0 0 8.5 9H12V2H8.5z" fill="#F24E1E"/>
  <path d="M12 2v7h3.5A3.5 3.5 0 0 0 19 5.5 3.5 3.5 0 0 0 15.5 2H12z" fill="#FF7262"/>
  <path d="M5 11.5A3.5 3.5 0 0 0 8.5 15H12V8H8.5A3.5 3.5 0 0 0 5 11.5z" fill="#A259FF"/>
  <path d="M12 8v7h-3.5a3.5 3.5 0 1 1 0-7H12z" fill="#A259FF"/>
  <path d="M5 17.5A3.5 3.5 0 0 0 8.5 21a3.5 3.5 0 0 0 3.5-3.5V14H8.5A3.5 3.5 0 0 0 5 17.5z" fill="#0ACF83"/>
  <path d="M12 8h3.5a3.5 3.5 0 1 1 0 7H12V8z" fill="#1ABCFE"/>
</svg>
