<svg xmlns="http://www.w3.org/2000/svg" viewBox="0 0 24 24" fill="none">
  <rect x="1" y="1" width="22" height="22" rx="3" fill="#00005B"/>
  <path d="M8.5 16.5V7.2h3.03c.72 0 1.3.1 1.74.32.44.2.76.5.97.88.21.38.32.82.32 1.32 0 .5-.11.94-.34 1.32-.22.38-.55.67-.99.88-.43.2-1 .3-1.68.3H9.72v-.01H9.7v4.29H8.5zm1.2-5.37h1.74c.58 0 1.01-.13 1.3-.39.28-.27.43-.63.43-1.1 0-.46-.14-.82-.43-1.08-.28-.26-.72-.39-1.3-.39H9.7v2.96zM14.8 16.5V11h1.05v.96a2.1 2.1 0 0 1 .67-.78c.28-.19.6-.28.96-.28.12 0 .22.01.32.03v1.1a1.33 1.33 0 0 0-.4-.06c-.4 0-.73.14-1 .42-.26.28-.4.68-.4 1.2V16.5H14.8z" fill="#9999FF"/>
</svg>
