<svg xmlns="http://www.w3.org/2000/svg" viewBox="0 0 24 24" fill="none">
  <path d="M15.34 2.61a.27.27 0 0 0-.24-.21 3.58 3.58 0 0 0-.62 0s-1.24.36-2.07.61a3.07 3.07 0 0 0-2.11-1.34c-.08 0-3.08-.08-3.71 3.87L3.4 6.87a1.52 1.52 0 0 0-1 1.22L.54 19.94 11.36 22l7.23-1.56S15.38 2.84 15.34 2.61zM10.7 4.33l-1.6.49A4.7 4.7 0 0 0 8 3a1.9 1.9 0 0 1 1.6.13 5.14 5.14 0 0 1 1.1 1.2zm-2.28.7l-3.27 1A4.42 4.42 0 0 1 7.78 3a2.07 2.07 0 0 1 .64 2.03zm1.12-2.83a.87.87 0 0 1 .62.26A5.77 5.77 0 0 1 11.34 4L9.7 4.5a3.48 3.48 0 0 0-.16-2.3z" fill="#95BF47"/>
  <path d="M15.1 2.4a.27.27 0 0 0-.24-.21 3.58 3.58 0 0 0-.62 0l-.63.19.41 7.75 3.52-.74S15.14 2.63 15.1 2.4z" fill="#5E8E3E"/>
  <path d="M9.42 8.47l-.62 2.35a3.7 3.7 0 0 0-1.58-.35c-1.27 0-1.33.8-1.33 1 0 1.1 2.87 1.52 2.87 4.11 0 2.03-1.29 3.34-3.03 3.34A4.1 4.1 0 0 1 3 17.67l.48-1.57a3.47 3.47 0 0 0 1.83.62c.6 0 .84-.47.84-.82 0-1.43-2.35-1.5-2.35-3.87 0-2 1.43-3.93 4.34-3.93a3.8 3.8 0 0 1 1.28.37z" fill="white"/>
</svg>
