<svg xmlns="http://www.w3.org/2000/svg" viewBox="0 0 24 24" fill="none">
  <path d="M12 2C6.486 2 2 6.486 2 12s4.486 10 10 10 10-4.486 10-10S17.514 2 12 2zM3.009 12c0-1.36.313-2.648.868-3.8L8.3 20.656A8.988 8.988 0 0 1 3.009 12zM12 20.991a9.01 9.01 0 0 1-2.752-.43l2.922-8.487 2.993 8.2a.85.85 0 0 0 .065.127A8.957 8.957 0 0 1 12 20.991zm1.242-13.2c.586-.031 1.114-.093 1.114-.093.524-.062.463-.832-.062-.801 0 0-1.578.124-2.596.124-.956 0-2.565-.124-2.565-.124-.525-.031-.587.77-.063.8 0 0 .497.063 1.022.094L11.32 11.8l-2.128 6.384L6.076 7.79c.587-.031 1.114-.093 1.114-.093.525-.062.463-.832-.062-.801 0 0-1.578.124-2.596.124-.183 0-.398-.005-.623-.013A8.974 8.974 0 0 1 12 3.009c2.34 0 4.472.895 6.071 2.36-.038-.003-.076-.008-.116-.008-1.006 0-1.72.876-1.72 1.816 0 .844.487 1.558 1.006 2.402.39.676.844 1.543.844 2.795 0 .868-.333 1.875-.77 3.28l-1.008 3.367-3.065-9.23z" fill="white"/>
</svg>
