<svg xmlns="http://www.w3.org/2000/svg" viewBox="0 0 200 200" fill="none">
  <!-- Marjane blue background -->
  <rect width="200" height="200" fill="#0052A5" rx="10"/>

  <!-- Yellow dot (signature element) -->
  <circle cx="82" cy="65" r="10" fill="#FFD100"/>

  <!-- "marjane" text - simplified bold rounded style -->
  <g fill="white">
    <!-- m -->
    <path d="M20 110V85c0-5 3-8 8-8s8 3 8 8v5c0-5 3-8 7-8s7 3 7 8v5c0-5 3-8 7-8s7 3 7 12v21H56V95c0-2-1-3-2-3s-2 1-2 3v15H44V95c0-2-1-3-2-3s-2 1-2 3v15H32V95c0-2-1-3-2-3s-2 1-2 3v15H20z"/>

    <!-- a -->
    <path d="M68 110V95c0-7 4-10 9-10s9 3 9 10v15H78v-2c-1 2-3 3-5 3s-5-2-5-6 2-6 10-7v-3c0-2-1-3-3-3s-3 1-3 3v2H68zm10-8c-3 1-4 2-4 3s1 2 2 2 2-1 2-3v-2z"/>

    <!-- r -->
    <path d="M90 110V85h8v10c1-2 3-3 5-3v8h-2c-2 0-3 1-3 4v6h-8z"/>

    <!-- j -->
    <path d="M107 110c-4 0-7-2-7-7V77h8v26c0 2 1 3 2 3h2v4h-5z"/>

    <!-- a -->
    <path d="M120 110V95c0-7 4-10 9-10s9 3 9 10v15h-8v-2c-1 2-3 3-5 3s-5-2-5-6 2-6 10-7v-3c0-2-1-3-3-3s-3 1-3 3v2h-4zm10-8c-3 1-4 2-4 3s1 2 2 2 2-1 2-3v-2z"/>

    <!-- n -->
    <path d="M142 110V95c0-7 4-10 9-10s9 3 9 10v15h-8V95c0-2-1-3-3-3s-3 1-3 3v15h-8z"/>

    <!-- e -->
    <path d="M164 110c-5 0-9-3-9-10s4-10 9-10 9 3 9 10v3h-10c0 2 1 3 3 3s3-1 3-3h8c0 5-4 7-9 7zm-1-13c-2 0-3 1-3 3h6c0-2-1-3-3-3z"/>
  </g>

  <!-- Arabic text مرحبان -->
  <text x="100" y="145" font-family="Arial" font-weight="bold" font-size="32"
        fill="white" text-anchor="middle">مرحبان</text>
</svg>
